<svg width="32" height="32" viewBox="0 0 32 32" fill="none" xmlns="http://www.w3.org/2000/svg">
<path d="M16.0267 27.376C12.92 27.376 9.81332 26.8827 6.86665 25.896C5.74665 25.5093 4.89332 24.7227 4.51999 23.696C4.13332 22.6693 4.26665 21.536 4.87999 20.5227L6.41332 17.976C6.73332 17.4427 7.02665 16.376 7.02665 15.7493V11.896C7.02665 6.936 11.0667 2.896 16.0267 2.896C20.9867 2.896 25.0267 6.936 25.0267 11.896V15.7493C25.0267 16.3627 25.32 17.4427 25.64 17.9893L27.16 20.5227C27.7333 21.4827 27.84 22.6427 27.4533 23.696C27.2645 24.2113 26.9612 24.6771 26.5663 25.0581C26.1713 25.4392 25.6951 25.7257 25.1733 25.896C22.24 26.8827 19.1333 27.376 16.0267 27.376ZM16.0267 4.896C12.1733 4.896 9.02666 8.02933 9.02666 11.896V15.7493C9.02666 16.7227 8.62666 18.1627 8.13332 19.0027L6.59999 21.5493C6.30665 22.0427 6.22666 22.5627 6.39999 23.0027C6.55999 23.456 6.95999 23.8027 7.50666 23.9893C13.0379 25.8559 19.0288 25.8559 24.56 23.9893C25.04 23.8293 25.4133 23.4693 25.5867 22.9893C25.76 22.5093 25.72 21.9893 25.4533 21.5493L23.92 19.0027C23.4133 18.136 23.0267 16.7093 23.0267 15.736V11.896C23.0267 8.02933 19.8933 4.896 16.0267 4.896Z" fill="white"/>
<path d="M18.5067 5.25333C18.4133 5.25333 18.32 5.23999 18.2267 5.21333C17.84 5.10666 17.4667 5.02666 17.1067 4.97333C15.9733 4.82666 14.88 4.90666 13.8533 5.21333C13.48 5.33333 13.08 5.21333 12.8267 4.93333C12.7004 4.79534 12.6159 4.6244 12.5829 4.44033C12.5498 4.25626 12.5696 4.0666 12.64 3.89333C12.9055 3.20804 13.3726 2.61941 13.9796 2.20519C14.5867 1.79097 15.3051 1.57065 16.04 1.57333C17.56 1.57333 18.8933 2.47999 19.44 3.89333C19.5733 4.25333 19.5067 4.65333 19.2533 4.93333C19.0533 5.14666 18.7733 5.25333 18.5067 5.25333ZM16.0267 30.412C14.7067 30.412 13.4267 29.8787 12.4933 28.9453C11.56 28.012 11.0267 26.732 11.0267 25.412H13.0267C13.0267 26.1987 13.3467 26.972 13.9067 27.532C14.4667 28.092 15.24 28.412 16.0267 28.412C17.68 28.412 19.0267 27.0653 19.0267 25.412H21.0267C21.0267 28.172 18.7867 30.412 16.0267 30.412Z" fill="white"/>
</svg>
