<svg width="36" height="36" viewBox="0 0 36 36" fill="none" xmlns="http://www.w3.org/2000/svg">
<path d="M17.9535 34.125C9.07349 34.125 1.82849 26.895 1.82849 18C1.82849 9.105 9.07349 1.875 17.9535 1.875C26.8335 1.875 34.0785 9.105 34.0785 18C34.0785 26.895 26.8485 34.125 17.9535 34.125ZM17.9535 4.125C10.3035 4.125 4.07849 10.35 4.07849 18C4.07849 25.65 10.3035 31.875 17.9535 31.875C25.6035 31.875 31.8285 25.65 31.8285 18C31.8285 10.35 25.6035 4.125 17.9535 4.125Z" fill="#9E679F"/>
<path d="M15.837 25.4865C15.177 25.4865 14.547 25.3215 13.992 25.0065C12.702 24.2565 11.982 22.7865 11.982 20.8665V15.8415C11.982 13.9215 12.687 12.4515 13.977 11.7015C15.267 10.9515 16.902 11.0715 18.567 12.0315L22.917 14.5365C24.582 15.4965 25.497 16.8465 25.497 18.3465C25.497 19.8315 24.582 21.1965 22.917 22.1565L18.567 24.6615C17.637 25.2165 16.692 25.4865 15.837 25.4865ZM15.837 13.4565C15.567 13.4565 15.312 13.5165 15.117 13.6365C14.547 13.9665 14.232 14.7615 14.232 15.8415V20.8665C14.232 21.9315 14.547 22.7415 15.117 23.0565C15.672 23.3865 16.527 23.2515 17.457 22.7265L21.807 20.2215C22.737 19.6815 23.262 19.0065 23.262 18.3615C23.262 17.7165 22.722 17.0415 21.807 16.5015L17.457 13.9965C16.857 13.6365 16.302 13.4565 15.837 13.4565Z" fill="#9E679F"/>
</svg>
