<svg width="36" height="36" viewBox="0 0 36 36" fill="none" xmlns="http://www.w3.org/2000/svg">
<path d="M25.5 32.625C25.305 32.625 25.095 32.565 24.915 32.46L9.91502 23.46C9.74946 23.3606 9.61261 23.2198 9.51794 23.0515C9.42326 22.8832 9.37401 22.6931 9.37502 22.5V13.5C9.37612 13.3008 9.42998 13.1054 9.53112 12.9337C9.63226 12.762 9.77706 12.6202 9.9508 12.5227C10.1245 12.4251 10.321 12.3753 10.5202 12.3784C10.7195 12.3814 10.9143 12.4372 11.085 12.54L24.375 20.52V14.145L17.415 9.975C17.2509 9.87424 17.1154 9.73308 17.0213 9.56502C16.9273 9.39695 16.8779 9.20758 16.8779 9.015C16.8779 8.82242 16.9273 8.63305 17.0213 8.46498C17.1154 8.29692 17.2509 8.15576 17.415 8.055L24.915 3.555C25.275 3.345 25.71 3.345 26.07 3.555L33.57 8.055C33.915 8.265 34.11 8.625 34.11 9.015V27.015C34.11 27.405 33.9 27.78 33.57 27.975L26.07 32.475C25.905 32.565 25.695 32.625 25.5 32.625ZM11.625 21.87L25.5 30.195L31.875 26.37V9.645L25.5 5.82L20.19 9.015L26.085 12.555C26.43 12.765 26.625 13.125 26.625 13.515V22.515C26.625 22.92 26.4 23.295 26.055 23.49C25.71 23.685 25.275 23.685 24.915 23.475L11.625 15.495V21.87Z" fill="#7824E2"/>
<path d="M10.5 32.6235C10.305 32.6235 10.095 32.5635 9.91502 32.4585L2.41502 27.9585C2.24946 27.8591 2.11261 27.7183 2.01794 27.55C1.92326 27.3817 1.87401 27.1916 1.87502 26.9985V8.9985C1.87502 8.6085 2.08502 8.2335 2.41502 8.0385L9.91502 3.5385C10.275 3.3285 10.71 3.3285 11.07 3.5385L18.57 8.0385C19.11 8.3535 19.275 9.0435 18.96 9.5835C18.645 10.1235 17.955 10.2885 17.415 9.9735L10.5 5.8185L4.12502 9.6435V26.3685L10.47 30.1785L16.935 25.8735C17.445 25.5285 18.15 25.6635 18.495 26.1885C18.84 26.7135 18.705 27.4035 18.18 27.7485L11.13 32.4435C10.935 32.5635 10.725 32.6235 10.5 32.6235Z" fill="#7824E2"/>
</svg>
