<svg width="36" height="36" viewBox="0 0 36 36" fill="none" xmlns="http://www.w3.org/2000/svg">
<path d="M7.785 9.5715C7.5 9.5715 7.2 9.4515 6.99 9.2415C6.78078 9.02979 6.66345 8.74414 6.66345 8.4465C6.66345 8.14885 6.78078 7.86321 6.99 7.6515L12.435 2.2065C12.87 1.7715 13.59 1.7715 14.025 2.2065C14.46 2.6415 14.46 3.3615 14.025 3.7965L8.58 9.2415C8.355 9.4515 8.07 9.5715 7.785 9.5715ZM28.215 9.5715C27.93 9.5715 27.645 9.4665 27.42 9.2415L21.975 3.7965C21.7658 3.58479 21.6485 3.29914 21.6485 3.0015C21.6485 2.70385 21.7658 2.41821 21.975 2.2065C22.41 1.7715 23.13 1.7715 23.565 2.2065L29.01 7.6515C29.445 8.0865 29.445 8.8065 29.01 9.2415C28.8 9.4515 28.5 9.5715 28.215 9.5715Z" fill="#9E679F"/>
<path d="M30.315 15.903H6C4.95 15.918 3.75 15.918 2.88 15.048C2.19 14.373 1.875 13.323 1.875 11.778C1.875 7.653 4.89 7.653 6.33 7.653H29.67C31.11 7.653 34.125 7.653 34.125 11.778C34.125 13.338 33.81 14.373 33.12 15.048C32.34 15.828 31.29 15.903 30.315 15.903ZM6.33 13.653H30.015C30.69 13.668 31.32 13.668 31.53 13.458C31.635 13.353 31.86 12.993 31.86 11.778C31.86 10.083 31.44 9.903 29.655 9.903H6.33C4.545 9.903 4.125 10.083 4.125 11.778C4.125 12.993 4.365 13.353 4.455 13.458C4.665 13.653 5.31 13.653 5.97 13.653H6.33ZM14.64 27.45C14.025 27.45 13.515 26.94 13.515 26.325V21C13.515 20.385 14.025 19.875 14.64 19.875C15.255 19.875 15.765 20.385 15.765 21V26.325C15.765 26.955 15.255 27.45 14.64 27.45ZM21.54 27.45C20.925 27.45 20.415 26.94 20.415 26.325V21C20.415 20.385 20.925 19.875 21.54 19.875C22.155 19.875 22.665 20.385 22.665 21V26.325C22.665 26.955 22.155 27.45 21.54 27.45Z" fill="#9E679F"/>
<path d="M22.335 34.125H13.29C7.92 34.125 6.72 30.93 6.255 28.155L4.14 15.18C4.035 14.565 4.455 13.995 5.07 13.89C5.685 13.785 6.255 14.205 6.36 14.82L8.475 27.78C8.91 30.435 9.81 31.875 13.29 31.875H22.335C26.19 31.875 26.625 30.525 27.12 27.915L29.64 14.79C29.76 14.175 30.345 13.77 30.96 13.905C31.575 14.025 31.965 14.61 31.845 15.225L29.325 28.35C28.74 31.395 27.765 34.125 22.335 34.125Z" fill="#9E679F"/>
</svg>
