<svg width="36" height="36" viewBox="0 0 36 36" fill="none" xmlns="http://www.w3.org/2000/svg">
<path d="M18.18 20.295H17.925C14.52 20.19 11.97 17.535 11.97 14.265C11.97 10.935 14.685 8.22 18.015 8.22C21.345 8.22 24.06 10.935 24.06 14.265C24.0631 15.8317 23.4554 17.3379 22.3659 18.4638C21.2764 19.5897 19.791 20.2466 18.225 20.295H18.18ZM18 10.455C15.9 10.455 14.205 12.165 14.205 14.25C14.2005 15.2322 14.5784 16.1775 15.2587 16.8859C15.9391 17.5942 16.8685 18.0099 17.85 18.045C17.9644 18.0292 18.0805 18.0292 18.195 18.045C19.1667 17.9932 20.0815 17.5708 20.7512 16.8649C21.4209 16.1589 21.7944 15.2231 21.795 14.25C21.795 12.165 20.1 10.455 18 10.455ZM18 34.125C13.965 34.125 10.11 32.625 7.12499 29.895C6.99586 29.7761 6.89613 29.6289 6.83365 29.4649C6.77118 29.3009 6.74767 29.1246 6.76499 28.95C6.95999 27.165 8.06999 25.5 9.91499 24.27C14.385 21.3 21.63 21.3 26.085 24.27C27.93 25.515 29.04 27.165 29.235 28.95C29.28 29.31 29.145 29.655 28.875 29.895C25.9083 32.6182 22.027 34.1279 18 34.125ZM9.11999 28.65C11.6089 30.7354 14.7529 31.8772 18 31.875C21.255 31.875 24.39 30.735 26.88 28.65C26.61 27.735 25.89 26.85 24.825 26.13C21.135 23.67 14.88 23.67 11.16 26.13C10.095 26.85 9.38999 27.735 9.11999 28.65Z" fill="#9E679F"/>
<path d="M18 34.125C9.105 34.125 1.875 26.895 1.875 18C1.875 9.105 9.105 1.875 18 1.875C26.895 1.875 34.125 9.105 34.125 18C34.125 26.895 26.895 34.125 18 34.125ZM18 4.125C10.35 4.125 4.125 10.35 4.125 18C4.125 25.65 10.35 31.875 18 31.875C25.65 31.875 31.875 25.65 31.875 18C31.875 10.35 25.65 4.125 18 4.125Z" fill="#9E679F"/>
</svg>
